<?xml version="1.0" encoding="utf-8"?>
<!-- Generator: Adobe Illustrator 16.0.0, SVG Export Plug-In . SVG Version: 6.00 Build 0)  -->
<!DOCTYPE svg PUBLIC "-//W3C//DTD SVG 1.1//EN" "http://www.w3.org/Graphics/SVG/1.1/DTD/svg11.dtd">
<svg version="1.1" id="Layer_1" xmlns="http://www.w3.org/2000/svg" xmlns:xlink="http://www.w3.org/1999/xlink" x="0px" y="0px"
	 width="48px" height="48px" viewBox="0 0 48 48" enable-background="new 0 0 48 48" xml:space="preserve">
<path fill="#231F20" d="M24,1C11.297,1,1,11.297,1,24c0,12.701,10.297,23,23,23c12.702,0,23-10.299,23-23C47,11.297,36.702,1,24,1z
	 M33.613,24.733c0,1.063-0.863,1.251-1.298,1.276h-6.307l-0.008,6.333c-0.002,1.169-0.895,1.267-1.131,1.271l-1.732-0.002
	c-0.259-0.006-1.161-0.104-1.159-1.274l0.007-6.327H15.66c-1.17,0-1.267-0.892-1.273-1.129v-1.734
	c0.005-0.259,0.104-1.161,1.273-1.161h6.332l0.008-6.193c0.006-0.293,0.103-1.411,1.234-1.409l1.512,0.002
	c1.064,0.001,1.251,0.865,1.276,1.3l-0.008,6.302h6.19c0.293,0.006,1.41,0.101,1.41,1.233L33.613,24.733L33.613,24.733z"/>
</svg>
