<?xml version="1.0" encoding="UTF-8" standalone="no"?>
<!-- Created with Inkscape (http://www.inkscape.org/) -->

<svg
   xmlns:dc="http://purl.org/dc/elements/1.1/"
   xmlns:cc="http://creativecommons.org/ns#"
   xmlns:rdf="http://www.w3.org/1999/02/22-rdf-syntax-ns#"
   xmlns:svg="http://www.w3.org/2000/svg"
   xmlns="http://www.w3.org/2000/svg"
   xmlns:sodipodi="http://sodipodi.sourceforge.net/DTD/sodipodi-0.dtd"
   xmlns:inkscape="http://www.inkscape.org/namespaces/inkscape"
   width="16"
   height="16"
   viewBox="0 0 4.2333333 4.2333332"
   version="1.1"
   id="svg1080"
   inkscape:version="0.92.4 (5da689c313, 2019-01-14)"
   sodipodi:docname="search.svg">
  <defs
     id="defs1074" />
  <sodipodi:namedview
     id="base"
     pagecolor="#ffffff"
     bordercolor="#666666"
     borderopacity="1.0"
     inkscape:pageopacity="0.0"
     inkscape:pageshadow="2"
     inkscape:zoom="7.9195959"
     inkscape:cx="2.8131321"
     inkscape:cy="-3.0215976"
     inkscape:document-units="mm"
     inkscape:current-layer="layer1"
     showgrid="false"
     fit-margin-top="0"
     fit-margin-left="0"
     fit-margin-right="0"
     fit-margin-bottom="0"
     units="px"
     inkscape:window-width="1920"
     inkscape:window-height="1009"
     inkscape:window-x="3832"
     inkscape:window-y="515"
     inkscape:window-maximized="1" />
  <metadata
     id="metadata1077">
    <rdf:RDF>
      <cc:Work
         rdf:about="">
        <dc:format>image/svg+xml</dc:format>
        <dc:type
           rdf:resource="http://purl.org/dc/dcmitype/StillImage" />
        <dc:title></dc:title>
      </cc:Work>
    </rdf:RDF>
  </metadata>
  <g
     inkscape:label="Calque 1"
     inkscape:groupmode="layer"
     id="layer1"
     transform="translate(-83.906757,-188.4522)">
    <circle
       style="opacity:1;fill:#f0eeeb;fill-opacity:1;stroke:none;stroke-width:0.04640979;stroke-linecap:butt;stroke-linejoin:miter;stroke-miterlimit:4;stroke-dasharray:none;stroke-dashoffset:0;stroke-opacity:1"
       id="path1651"
       cx="86.000854"
       cy="190.70851"
       r="1.9432675" />
    <path
       style="fill:#74515f;stroke-width:0.37869471"
       inkscape:connector-curvature="0"
       id="path155"
       d="m 86.602211,189.58109 c 0.202981,0.0469 0.364684,0.22041 0.411643,0.40937 0.01629,0.0886 0.09316,0.15526 0.185181,0.15526 0.103382,0 0.188211,-0.0849 0.188211,-0.18821 0,-0.13511 -0.113987,-0.34158 -0.269252,-0.49571 -0.151857,-0.15035 -0.334009,-0.25713 -0.483214,-0.25713 -0.103382,0 -0.188211,0.0879 -0.188211,0.19086 0,0.0927 0.06703,0.17004 0.155642,0.18556 z m -2.586105,2.46644 c -0.145798,0.14579 -0.145798,0.38286 0,0.52866 0.145796,0.14579 0.382861,0.14579 0.527521,0 l 1.080795,-1.07966 c 0.252211,0.15715 0.549487,0.24804 0.869104,0.24804 0.909625,0 1.646565,-0.73618 1.646565,-1.64581 0,-0.90962 -0.736561,-1.64618 -1.646565,-1.64618 -0.908867,0 -1.645807,0.73656 -1.645807,1.64618 0,0.31886 0.09126,0.6169 0.248045,0.86911 z m 1.302331,-1.94877 c 0,-0.64907 0.526386,-1.17584 1.175469,-1.17584 0.649081,0 1.175846,0.52677 1.175846,1.17584 0,0.6487 -0.527143,1.17585 -1.175846,1.17585 -0.648705,0 -1.175469,-0.52715 -1.175469,-1.17585 z" />
  </g>
</svg>
