<?xml version="1.0" encoding="UTF-8" standalone="no"?>
<!-- Generator: Adobe Illustrator 16.0.0, SVG Export Plug-In . SVG Version: 6.00 Build 0)  -->

<svg
   xmlns:dc="http://purl.org/dc/elements/1.1/"
   xmlns:cc="http://creativecommons.org/ns#"
   xmlns:rdf="http://www.w3.org/1999/02/22-rdf-syntax-ns#"
   xmlns:svg="http://www.w3.org/2000/svg"
   xmlns="http://www.w3.org/2000/svg"
   xmlns:sodipodi="http://sodipodi.sourceforge.net/DTD/sodipodi-0.dtd"
   xmlns:inkscape="http://www.inkscape.org/namespaces/inkscape"
   version="1.1"
   x="0px"
   y="0px"
   width="13"
   height="190"
   viewBox="0 0 13 190"
   enable-background="new 0 0 1280 800"
   xml:space="preserve"
   id="svg2"
   inkscape:version="0.92.4 (5da689c313, 2019-01-14)"
   sodipodi:docname="types.svg"><metadata
     id="metadata441"><rdf:RDF><cc:Work
         rdf:about=""><dc:format>image/svg+xml</dc:format><dc:type
           rdf:resource="http://purl.org/dc/dcmitype/StillImage" /><dc:title></dc:title></cc:Work></rdf:RDF></metadata><defs
     id="defs439" /><sodipodi:namedview
     pagecolor="#ffffff"
     bordercolor="#666666"
     borderopacity="1"
     objecttolerance="10"
     gridtolerance="10"
     guidetolerance="10"
     inkscape:pageopacity="0"
     inkscape:pageshadow="2"
     inkscape:window-width="1920"
     inkscape:window-height="1009"
     id="namedview437"
     showgrid="false"
     fit-margin-top="0"
     fit-margin-left="0"
     fit-margin-right="0"
     fit-margin-bottom="0"
     inkscape:zoom="3.1466252"
     inkscape:cx="-10.206081"
     inkscape:cy="99.340354"
     inkscape:window-x="3832"
     inkscape:window-y="515"
     inkscape:window-maximized="1"
     inkscape:current-layer="svg2" /><g
     id="xls"
     transform="translate(113.50008,-239.5)"><rect
       style="fill:#e0dcd8"
       height="10"
       width="13"
       inkscape:export-ydpi="90.760002"
       inkscape:export-xdpi="90.760002"
       inkscape:export-filename="/home/sam/SCmodels/Office/model/utils/path5633.png"
       y="404.5"
       x="-113.5"
       id="rect5055" /><g
       transform="matrix(0.7536433,0,0,0.6284015,169.83169,-579.20045)"
       id="g3201"><path
         style="fill:#1f8436"
         d="m -362.569,1575.571 1.415,-2.458 -3.071,0.215 2.781,-4.519 -2.998,-0.059 -1.793,2.679 -2.446,-2.763 -4.375,-0.084 5.142,5.355 -2.807,4.193 5.994,-0.876 0.435,0.457 3.177,-0.497 z m -1.581,1.439 -7.137,-7.506 h 1.029 l 6.818,7.4 -0.71,0.103 v 0 z"
         inkscape:connector-curvature="0"
         id="path3203" /></g><line
       style="fill:#74515f;stroke:#74515f;stroke-miterlimit:10"
       id="line34"
       y2="414.5"
       x2="-113"
       y1="404.5"
       x1="-113"
       stroke-miterlimit="10" /></g><g
     id="rtf"
     transform="translate(113.50008,-239.5)"><rect
       style="fill:#e0dcd8"
       height="10"
       width="13"
       inkscape:export-ydpi="90.760002"
       inkscape:export-xdpi="90.760002"
       inkscape:export-filename="/home/sam/SCmodels/Office/model/utils/path5633.png"
       y="374.5"
       x="-113.5"
       id="rect6147_1_" /><line
       style="fill:#74515f;stroke:#74515f;stroke-miterlimit:10"
       id="line38"
       y2="384.5"
       x2="-113"
       y1="374.5"
       x1="-113"
       stroke-miterlimit="10" /><path
       style="fill:#2a458d"
       d="m -101.832,376.502 -1.871,0.008 -0.193,0.002 -0.041,0.17 -0.107,0.447 -0.076,0.316 0.355,-0.016 0.211,-0.01 -1.236,2.586 c -0.02,-0.932 -0.07,-3.238 -0.07,-3.238 l -0.006,-0.254 -0.287,0.002 -1.021,0.006 h -0.182 l -0.064,0.145 -1.598,3.596 c -0.055,-0.684 -0.17,-2.15 -0.219,-2.746 h 0.438 0.246 l 0.037,-0.205 0.086,-0.475 0.057,-0.311 -0.369,0.004 -2.33,0.012 -0.268,0.002 -0.033,0.215 -0.076,0.498 -0.049,0.326 0.4,-0.016 0.477,-0.021 0.453,4.693 0.025,0.26 0.307,-0.031 0.984,-0.104 0.189,-0.018 0.07,-0.154 1.553,-3.461 c 0.035,0.977 0.113,3.178 0.113,3.178 l 0.008,0.256 0.293,-0.027 0.877,-0.09 0.162,-0.018 0.064,-0.137 2.156,-4.506 0.451,0.002 h 0.18 l 0.043,-0.162 0.113,-0.43 0.08,-0.299 -0.332,0.002 z"
       inkscape:connector-curvature="0"
       id="path6151_1_" /></g><g
     id="ppt"
     transform="translate(113.50008,-239.5)"><rect
       style="fill:#e0dcd8"
       height="10"
       width="13"
       inkscape:export-ydpi="90.760002"
       inkscape:export-xdpi="90.760002"
       inkscape:export-filename="/home/sam/SCmodels/Office/model/utils/path5633.png"
       y="359.5"
       x="-113.5"
       id="rect6155" /><line
       style="fill:#74515f;stroke:#74515f;stroke-miterlimit:10"
       id="line43"
       y2="369.5"
       x2="-113"
       y1="359.5"
       x1="-113"
       stroke-miterlimit="10" /><path
       style="fill:#de6d13"
       d="m -102.493,361.797 -6.826,-0.297 0.205,6 6.795,-0.611 z m -4.428,4.922 c -0.871,0.066 -1.625,-0.553 -1.654,-1.385 -0.027,-0.822 0.668,-1.496 1.527,-1.518 l 0.053,1.531 1.51,-0.066 c -0.016,0.74 -0.629,1.375 -1.436,1.438 z m -1.732,-3.713 -0.033,-0.932 5.756,0.18 0.027,0.813 z"
       inkscape:connector-curvature="0"
       id="path3228" /></g><g
     id="ods"
     transform="translate(113.50008,-239.5)"><rect
       style="fill:#e0dcd8"
       height="10"
       width="12.999"
       inkscape:export-ydpi="90.760002"
       inkscape:export-xdpi="90.760002"
       inkscape:export-filename="/home/sam/SCmodels/Office/model/utils/path5633.png"
       y="314.5"
       x="-113.5"
       id="rect6161" /><line
       style="fill:#74515f;stroke:#74515f;stroke-miterlimit:10"
       id="line48"
       y2="324.5"
       x2="-113"
       y1="314.5"
       x1="-113"
       stroke-miterlimit="10" /><g
       transform="matrix(0.8571414,0,0,0.8571414,147.85787,14.766771)"
       id="g6167"><rect
         style="fill:none;stroke:#89ba22;stroke-width:1.02100003"
         height="2.9779999"
         width="2.9779999"
         y="352.53299"
         x="-298.36301"
         id="rect6169" /><rect
         style="fill:none;stroke:#89ba22;stroke-width:1.02100003"
         height="2.9779999"
         width="2.98"
         y="352.53299"
         x="-295.36401"
         id="rect6171" /><rect
         style="fill:none;stroke:#89ba22;stroke-width:1.02119994"
         height="2.98"
         width="2.9779999"
         y="355.53201"
         x="-298.36301"
         id="rect6173" /><rect
         style="fill:none;stroke:#89ba22;stroke-width:1.02119994"
         height="2.98"
         width="2.98"
         y="355.53201"
         x="-295.36401"
         id="rect6175" /></g><g
       transform="matrix(1.0999819,0,0,1.0490642,-57.989493,-21.458832)"
       id="g6252"><path
         style="fill:#ffffff"
         d="m -44.341,320.266 c -0.252,0.207 -0.444,0.423 -0.593,0.592 -0.414,-0.19 -0.98,-0.395 -1.751,-0.467 -1.122,-0.106 -2.573,0.203 -3.78,1.437 v 2.063 c 0.119,-0.004 0.233,-0.035 0.343,-0.095 1.777,-0.871 2.896,-0.592 3.688,-0.156 0.792,0.438 1.188,1.031 1.188,1.031 0.158,0.242 0.431,0.37 0.719,0.344 0.288,-0.026 0.543,-0.203 0.655,-0.469 0,0 0.266,-0.685 0.938,-1.344 0.671,-0.659 1.673,-1.26 3.375,-1.061 0.348,0.054 0.698,-0.117 0.843,-0.438 0.146,-0.322 0.051,-0.713 -0.218,-0.938 -0.213,-0.188 -0.44,-0.352 -0.657,-0.499 z"
         inkscape:connector-curvature="0"
         id="path6238" /><path
         style="fill:#37972d"
         d="m -50.465,323.09 c 2.328,-3.416 5.698,-1.29 5.698,-1.29 0,0 2.257,-3.159 5.302,-0.451 -3.869,-0.452 -5.124,2.903 -5.124,2.903 0,0 -1.934,-3.096 -5.876,-1.162 z"
         inkscape:connector-curvature="0"
         id="path6181" /></g></g><g
     id="odt"
     transform="translate(113.50008,-239.5)"><rect
       style="fill:#e0dcd8"
       height="10"
       width="13"
       inkscape:export-ydpi="90.760002"
       inkscape:export-xdpi="90.760002"
       inkscape:export-filename="/home/sam/SCmodels/Office/model/utils/path5633.png"
       y="329.50101"
       x="-113.5"
       id="rect6193" /><line
       style="fill:#74515f;stroke:#74515f;stroke-miterlimit:10"
       id="line60"
       y2="339.5"
       x2="-113"
       y1="329.5"
       x1="-113"
       stroke-miterlimit="10" /><g
       transform="matrix(0.7137543,0,0,0.7499995,187.72882,106.09077)"
       id="g6217"><path
         style="fill:#3c63a4"
         d="m -414.776,300.547 v 1.599 h 8.406 v -1.599 z"
         inkscape:connector-curvature="0"
         id="path6199" /><path
         style="fill:#3c63a4"
         d="m -414.776,303.747 v 1.599 h 8.406 v -1.599 z"
         inkscape:connector-curvature="0"
         id="path6201" /><path
         style="fill:#3c63a4"
         d="m -414.776,306.945 v 1.602 h 8.406 v -1.602 z"
         inkscape:connector-curvature="0"
         id="path6203" /></g><g
       transform="matrix(1.0999808,0,0,1.0490642,-57.988872,-36.458822)"
       id="g6256"><path
         style="fill:#ffffff"
         d="m -44.341,348.864 c -0.252,0.207 -0.444,0.423 -0.593,0.592 -0.414,-0.19 -0.98,-0.395 -1.751,-0.467 -1.122,-0.106 -2.573,0.203 -3.78,1.437 v 2.063 c 0.119,-0.004 0.233,-0.035 0.343,-0.095 1.777,-0.871 2.896,-0.592 3.688,-0.156 0.792,0.438 1.188,1.031 1.188,1.031 0.158,0.242 0.431,0.37 0.719,0.344 0.288,-0.026 0.543,-0.203 0.655,-0.469 0,0 0.266,-0.685 0.938,-1.344 0.672,-0.659 1.673,-1.26 3.375,-1.061 0.348,0.054 0.698,-0.117 0.843,-0.438 0.146,-0.322 0.051,-0.711 -0.218,-0.938 -0.213,-0.188 -0.44,-0.352 -0.657,-0.499 z"
         inkscape:connector-curvature="0"
         id="path6258" /><path
         style="fill:#37972d"
         d="m -50.465,351.688 c 2.328,-3.416 5.698,-1.29 5.698,-1.29 0,0 2.257,-3.159 5.302,-0.451 -3.869,-0.452 -5.124,2.903 -5.124,2.903 0,0 -1.934,-3.096 -5.876,-1.162 z"
         inkscape:connector-curvature="0"
         id="path6260" /></g></g><g
     id="odp"
     transform="translate(113.50008,-239.5)"><rect
       style="fill:#e0dcd8"
       height="10"
       width="12.999"
       inkscape:export-ydpi="90.760002"
       inkscape:export-xdpi="90.760002"
       inkscape:export-filename="/home/sam/SCmodels/Office/model/utils/path5633.png"
       y="298.5"
       x="-113.5"
       id="rect6264" /><line
       style="fill:none;stroke:#74515f;stroke-miterlimit:10"
       id="line71"
       y2="308.5"
       x2="-113"
       y1="298.5"
       x1="-113"
       stroke-miterlimit="10" /><polygon
       style="fill:none;stroke:#e9672e;stroke-width:1.5;stroke-linecap:round;stroke-linejoin:round"
       points="-108.902,301 -102.787,301 -103.693,305.988 -109.807,305.988 "
       id="polygon6270" /><g
       transform="matrix(1.0999819,0,0,1.0490642,-37.989502,-21.458821)"
       id="g6282"><path
         style="fill:#ffffff"
         d="m -62.523,305.009 c -0.252,0.207 -0.444,0.423 -0.593,0.592 -0.414,-0.19 -0.98,-0.395 -1.751,-0.467 -1.122,-0.106 -2.573,0.203 -3.78,1.437 v 2.063 c 0.119,-0.004 0.233,-0.035 0.343,-0.095 1.777,-0.871 2.896,-0.592 3.688,-0.156 0.792,0.438 1.188,1.031 1.188,1.031 0.158,0.242 0.431,0.37 0.719,0.344 0.288,-0.026 0.543,-0.203 0.655,-0.469 0,0 0.266,-0.685 0.938,-1.344 0.672,-0.659 1.673,-1.26 3.375,-1.061 0.348,0.054 0.698,-0.117 0.843,-0.438 0.146,-0.322 0.051,-0.711 -0.218,-0.938 -0.213,-0.188 -0.44,-0.352 -0.657,-0.499 z"
         inkscape:connector-curvature="0"
         id="path6284" /><path
         style="fill:#37972d"
         d="m -68.647,307.833 c 2.328,-3.416 5.698,-1.29 5.698,-1.29 0,0 2.257,-3.159 5.302,-0.451 -3.869,-0.452 -5.124,2.903 -5.124,2.903 0,0 -1.934,-3.096 -5.876,-1.162 z"
         inkscape:connector-curvature="0"
         id="path6286" /></g></g><g
     id="odg"
     transform="translate(113.50008,-239.5)"><rect
       style="fill:#e0dcd8"
       height="10"
       width="12.821"
       inkscape:export-ydpi="90.760002"
       inkscape:export-xdpi="90.760002"
       inkscape:export-filename="/home/sam/SCmodels/Office/model/utils/path5633.png"
       y="283.5"
       x="-113.321"
       id="rect6290" /><path
       style="fill:none;stroke:#f6af06;stroke-width:1.13370001;stroke-linecap:round;stroke-linejoin:round"
       d="m -107.755,287.132 c 0.785,-0.836 2.668,-1.459 3.785,-0.768 0.332,1.203 -1.867,1.895 -2.104,3.006 -0.35,1.633 1.74,1.709 3.197,1.451"
       inkscape:connector-curvature="0"
       id="path6296" /><line
       style="fill:#74515f;stroke:#74515f;stroke-miterlimit:10"
       id="line80"
       y2="293.5"
       x2="-113"
       y1="283.5"
       x1="-113"
       stroke-miterlimit="10" /><g
       transform="matrix(1.0999819,0,0,1.0490642,-37.989515,-36.458821)"
       id="g6308"><path
         style="fill:#ffffff"
         d="m -62.522,305.072 c -0.252,0.207 -0.444,0.423 -0.593,0.592 -0.414,-0.19 -0.98,-0.395 -1.751,-0.467 -1.122,-0.106 -2.573,0.203 -3.78,1.437 v 2.063 c 0.119,-0.004 0.233,-0.035 0.343,-0.095 1.777,-0.871 2.896,-0.592 3.688,-0.156 0.792,0.438 1.188,1.031 1.188,1.031 0.158,0.242 0.431,0.37 0.719,0.344 0.288,-0.026 0.543,-0.203 0.655,-0.469 0,0 0.266,-0.685 0.938,-1.344 0.671,-0.659 1.673,-1.26 3.375,-1.061 0.348,0.054 0.698,-0.117 0.843,-0.438 0.146,-0.322 0.051,-0.711 -0.218,-0.938 -0.213,-0.188 -0.44,-0.352 -0.657,-0.499 z"
         inkscape:connector-curvature="0"
         id="path6310" /><path
         style="fill:#37972d"
         d="m -68.646,307.897 c 2.328,-3.416 5.698,-1.29 5.698,-1.29 0,0 2.257,-3.159 5.302,-0.451 -3.869,-0.452 -5.124,2.903 -5.124,2.903 0,0 -1.934,-3.097 -5.876,-1.162 z"
         inkscape:connector-curvature="0"
         id="path6312" /></g></g><g
     id="g4709"
     transform="translate(-49.45992,7.004)"><rect
       style="fill:#e0dcd8"
       height="10"
       width="13"
       inkscape:export-ydpi="90.760002"
       inkscape:export-xdpi="90.760002"
       inkscape:export-filename="/home/sam/SCmodels/Office/model/utils/path5633.png"
       y="96.996002"
       x="49.459999"
       id="rect6414" /><line
       style="fill:#74515f;stroke:#74515f;stroke-miterlimit:10"
       id="line87"
       y2="106.996"
       x2="49.959999"
       y1="96.996002"
       x1="49.959999"
       stroke-miterlimit="10" /><path
       transform="translate(-550.91123,-385.49191)"
       style="fill:#fb0f0c;stroke:#fb0f0c;stroke-width:0.2577"
       d="m 606.09375,483.20312 a 0.2964932,0.2964932 0 0 0 -0.29687,0.29493 c -0.004,0.56364 0.12632,1.27142 0.36328,1.99609 -0.13917,0.62286 -0.35858,1.36937 -0.7461,2.29883 -0.6221,1.49424 -1.16834,2.56819 -1.61718,3.15039 a 0.2964932,0.2964932 0 0 0 0.26171,0.47656 l 0.34375,-0.0312 a 0.2964932,0.2964932 0 0 0 0.21094,-0.11914 c 0.30122,-0.41123 0.62832,-1.00765 0.99414,-1.74805 0.91265,-0.41584 2.08473,-0.75193 3.07227,-0.93554 0.49481,0.23308 0.9941,0.40112 1.40429,0.44726 0.22333,0.0251 0.42069,0.0239 0.60352,-0.0273 0.0914,-0.0256 0.18445,-0.0648 0.26562,-0.13867 0.0658,-0.0599 0.10098,-0.15629 0.125,-0.25 2.3e-4,-8.8e-4 0.002,-0.001 0.002,-0.002 a 0.2964932,0.2964932 0 0 0 0.043,-0.0801 c 0.0732,-0.21058 0.0275,-0.47672 -0.125,-0.63282 -0.15253,-0.15609 -0.34954,-0.22114 -0.57032,-0.25976 -0.41176,-0.072 -0.95464,-0.0314 -1.57617,0.0801 -0.20836,-0.1168 -0.41249,-0.2423 -0.60351,-0.39063 l -0.004,-0.004 c -0.4948,-0.39956 -0.93953,-1.14946 -1.22852,-1.92578 0.0707,-0.67906 0.0494,-1.28036 0.0313,-1.88086 a 0.2964932,0.2964932 0 0 0 -0.50196,-0.20507 0.2964932,0.2964932 0 0 0 -0.23242,-0.11329 z m 0.62695,3.51954 c 0.26517,0.47797 0.56792,0.92265 0.96289,1.2539 a 0.2964932,0.2964932 0 0 0 0.002,0.002 c 0.0144,0.0119 0.0342,0.0249 0.0488,0.0371 -0.55767,0.16404 -1.12819,0.38213 -1.71094,0.65235 0.0745,-0.15698 0.1438,-0.28586 0.21679,-0.45508 v -0.002 c 0.25956,-0.59723 0.35573,-1.02864 0.48047,-1.48828 z"
       inkscape:original="M 606.09375 483.5 C 606.09013 484.04214 606.2183 484.76613 606.46875 485.5 C 606.3267 486.14943 606.09087 486.93877 605.6875 487.90625 C 605.06137 489.41016 604.51529 490.49715 604.03125 491.125 L 604.375 491.09375 C 604.67725 490.68112 605.01492 490.08494 605.40625 489.28125 C 605.57661 488.9302 605.78152 488.52797 605.96875 488.09375 C 606.34385 487.23099 606.54306 486.56231 606.65625 485.96875 C 606.95123 486.67657 607.35724 487.31578 607.875 487.75 C 608.03396 487.8814 608.19499 488.01771 608.375 488.125 C 607.45805 488.34402 606.3906 488.73594 605.40625 489.28125 C 606.38034 488.82608 607.64115 488.47106 608.6875 488.28125 C 609.70436 488.79356 610.77698 488.90326 610.8125 488.53125 C 610.58011 488.68234 609.87395 488.55839 609.125 488.21875 C 610.11295 488.08101 610.84556 488.10865 610.84375 488.4375 C 611.03279 487.89407 610.09853 487.77605 608.78125 488.03125 C 608.5296 487.89602 608.29008 487.73962 608.0625 487.5625 C 607.48813 487.10097 607.02038 486.29467 606.71875 485.46875 C 606.80183 484.77171 606.76926 484.16862 606.75 483.53125 C 606.70845 483.82011 606.68231 484.30804 606.5625 485 C 606.39453 484.43121 606.31732 483.90312 606.3125 483.5 L 606.09375 483.5 z "
       sodipodi:type="inkscape:offset"
       inkscape:radius="0.29646355"
       id="path6426" /></g><g
     id="zip"
     transform="translate(113.50008,-239.5)"><rect
       style="fill:#e0dcd8"
       height="10"
       width="13"
       inkscape:export-ydpi="90.760002"
       inkscape:export-xdpi="90.760002"
       inkscape:export-filename="/home/sam/SCmodels/Office/model/utils/path5633.png"
       y="419.5"
       x="-113.5"
       id="rect6430" /><line
       style="fill:#74515f;stroke:#74515f;stroke-miterlimit:10"
       id="line92"
       y2="429.5"
       x2="-113"
       y1="419.5"
       x1="-113"
       stroke-miterlimit="10" /><path
       style="fill:#1e9fba;stroke:#000000;stroke-width:0.2383;stroke-linecap:round;stroke-linejoin:round"
       d="m -103.254,427.052 0.641,-0.57 v -4.633 l -0.77,-0.783 h -3.533 l -0.898,0.998 4.174,-0.072 0.193,3.99 h -4.303 l 1.027,1.07 1.211,-0.016 0.016,0.898 h 0.953 l -0.016,-0.867 z"
       inkscape:connector-curvature="0"
       sodipodi:nodetypes="ccccccccccccccc"
       id="polygon3469" /><linearGradient
       gradientTransform="matrix(0.683,0,0,-0.683,-22.7838,-567.6844)"
       y2="-1455.1362"
       x2="-120.9174"
       y1="-1448.5928"
       x1="-127.4609"
       gradientUnits="userSpaceOnUse"
       id="polygon3476_1_"><stop
         id="stop96"
         style="stop-color:#F1EE23"
         offset="0" /><stop
         id="stop98"
         style="stop-color:#F9AE5F"
         offset="1" /></linearGradient><polygon
       style="fill:url(#polygon3476_1_);stroke:#920f06;stroke-width:0.33790001;stroke-linecap:round;stroke-linejoin:round"
       points="-109.66,421.524 -110.119,422.286 -110.264,422.286 -110.264,425.671 -104.867,425.671 -104.867,422.286 -107.141,422.286 -107.447,421.524 "
       id="polygon3476" /></g><g
     id="swf"
     transform="translate(113.50008,-239.5)"><rect
       style="fill:#e0dcd8"
       height="10"
       width="13"
       inkscape:export-ydpi="90.760002"
       inkscape:export-xdpi="90.760002"
       inkscape:export-filename="/home/sam/SCmodels/Office/model/utils/path5633.png"
       y="389.5"
       x="-113.5"
       id="rect6477" /><line
       style="fill:#74515f;stroke:#74515f;stroke-miterlimit:10"
       id="line103"
       y2="399.5"
       x2="-113"
       y1="389.5"
       x1="-113"
       stroke-miterlimit="10" /><g
       transform="matrix(0.682138,0,0,0.6426047,330.18371,152.21809)"
       id="g6464"><path
         style="fill:#cb1009"
         d="m -639.783,377.733 -4.882,2.197 c -0.916,0.456 -1.409,-1.122 -0.435,-1.508 l 4.326,-1.641 c 0.224,0.42 0.556,0.751 0.991,0.952 z"
         inkscape:connector-curvature="0"
         id="path3139" /><path
         style="fill:#f7bf0f"
         d="m -640.962,376.323 -4.931,-3.453 c -0.315,-0.161 -0.046,-0.508 0.266,-0.301 l 4.627,3.121 -0.037,0.043 c 0,0.21 0.038,0.423 0.075,0.59 z"
         inkscape:connector-curvature="0"
         id="path3141" /><path
         style="fill:#f8a10f"
         d="m -640.962,375.402 -1.509,-4.31 c -0.12,-0.359 0.435,-0.38 0.55,-0.067 l 1.372,3.684 c -0.187,0.197 -0.336,0.404 -0.413,0.693 z"
         inkscape:connector-curvature="0"
         id="path3143" /><path
         style="fill:#f71f0d"
         d="m -633.226,379.636 c 0.358,0.413 -0.112,1.052 -0.507,0.647 l -3.47,-3.438 c 0.029,-0.116 0.063,-0.271 0.063,-0.429 0,-0.234 -0.034,-0.468 -0.132,-0.666 l 0.132,0.043 z"
         inkscape:connector-curvature="0"
         id="path3145" /><path
         style="fill:#fa410f"
         d="m -637.271,375.751 c -0.229,-0.711 -0.833,-1.094 -0.833,-1.094 l 5.016,1.781 c 0.438,0.149 0.249,0.933 -0.192,0.79 l -3.857,-1.435 z"
         inkscape:connector-curvature="0"
         id="path3147" /><path
         style="fill:#f96211"
         d="m -634.746,373.374 -3.356,1.283 c -0.238,-0.17 -0.513,-0.304 -0.825,-0.359 -0.072,-0.006 -0.178,-0.055 -0.246,-0.058 l 4.1,-1.456 c 0.356,-0.151 0.679,0.469 0.327,0.59 z"
         inkscape:connector-curvature="0"
         id="path3149" /><path
         style="fill:#f87f11"
         d="m -639.118,371.566 -1.171,2.945 c 0.255,-0.152 0.581,-0.258 0.902,-0.283 l 0.873,-2.599 z"
         inkscape:connector-curvature="0"
         id="path3151" /><path
         style="fill:#fb0f0c"
         d="M -634.878,382.459 -637.272,377 c -0.132,0.356 -0.395,0.629 -0.73,0.79 l 1.798,4.814 z"
         inkscape:connector-curvature="0"
         id="path3153" /><path
         style="fill:#e61408"
         d="m -640.215,383.079 1.907,-5.164 c -0.24,0.046 -0.481,0.088 -0.762,0.052 -0.175,-0.036 -0.318,-0.076 -0.461,-0.115 l -2.273,4.924 c -0.072,0.164 -0.054,0.328 0.003,0.48 z"
         inkscape:connector-curvature="0"
         id="path3155" /></g></g><g
     id="mp3"
     transform="translate(113.50008,-239.5)"><rect
       style="fill:#e0dcd8"
       height="10"
       width="13"
       inkscape:export-ydpi="90.760002"
       inkscape:export-xdpi="90.760002"
       inkscape:export-filename="/home/sam/SCmodels/Office/model/utils/path5633.png"
       y="269.5"
       x="-113.5"
       id="rect6489" /><line
       style="fill:#74515f;stroke:#74515f;stroke-miterlimit:10"
       id="line117"
       y2="279.5"
       x2="-113"
       y1="269.5"
       x1="-113"
       stroke-miterlimit="10" /><path
       style="fill:#d7ead5;stroke:#74515f;stroke-width:0.59200001"
       d="m -108.086,275.351 h -0.938 c -0.453,0 -0.818,-0.537 -0.818,-1.201 0,-0.664 0.365,-1.203 0.818,-1.203 h 0.938"
       inkscape:connector-curvature="0"
       id="path2876" /><path
       style="fill:#d7ead5;stroke:#74515f;stroke-width:0.69199997"
       d="m -105.926,277.017 -2.16,-1.666 c -0.451,0 -0.818,-0.537 -0.818,-1.201 0,-0.664 0.367,-1.203 0.818,-1.203 l 2.16,-1.664"
       inkscape:connector-curvature="0"
       id="path2878" /><ellipse
       style="fill:#d7ead5;stroke:#74515f;stroke-width:1.53240001"
       ry="2.8670001"
       rx="1.357"
       cy="274.14899"
       cx="-105.926"
       id="ellipse2880" /><path
       style="fill:none;stroke:#74515f;stroke-width:0.58999997"
       d="m -104.305,272.265 c 0.678,0 1.229,0.807 1.229,1.803 0,0.994 -0.551,1.803 -1.229,1.803"
       inkscape:connector-curvature="0"
       id="path2884" /><path
       style="fill:none;stroke:#74515f;stroke-width:0.58999997"
       d="m -103.58,271.343 c 1.025,0 1.857,1.221 1.857,2.725 0,1.504 -0.832,2.723 -1.857,2.723"
       inkscape:connector-curvature="0"
       id="path2886" /></g><g
     id="doc"
     transform="translate(113.50008,-239.5)"><rect
       style="fill:#e0dcd8"
       height="10"
       width="13"
       inkscape:export-ydpi="90.760002"
       inkscape:export-xdpi="90.760002"
       inkscape:export-filename="/home/sam/SCmodels/Office/model/utils/path5633.png"
       y="239.5"
       x="-113.5"
       id="rect6147" /><path
       style="fill:#2a458d"
       d="m -101.832,241.502 -1.871,0.008 -0.193,0.002 -0.041,0.17 -0.107,0.447 -0.076,0.316 0.355,-0.016 0.211,-0.01 -1.236,2.586 c -0.02,-0.932 -0.07,-3.238 -0.07,-3.238 l -0.006,-0.254 -0.287,0.002 -1.021,0.006 h -0.182 l -0.064,0.145 -1.598,3.596 c -0.055,-0.684 -0.17,-2.15 -0.219,-2.746 h 0.438 0.246 l 0.037,-0.205 0.086,-0.475 0.057,-0.311 -0.369,0.004 -2.33,0.012 -0.268,0.002 -0.033,0.215 -0.076,0.498 -0.049,0.326 0.4,-0.016 0.477,-0.021 0.453,4.693 0.025,0.26 0.307,-0.031 0.984,-0.104 0.189,-0.018 0.07,-0.154 1.553,-3.461 c 0.035,0.977 0.113,3.178 0.113,3.178 l 0.008,0.256 0.293,-0.027 0.877,-0.09 0.162,-0.018 0.064,-0.137 2.156,-4.506 0.451,0.002 h 0.18 l 0.043,-0.162 0.113,-0.43 0.08,-0.299 -0.332,0.002 z"
       inkscape:connector-curvature="0"
       id="path6151" /><line
       style="fill:#74515f;stroke:#74515f;stroke-miterlimit:10"
       id="line127"
       y2="249.5"
       x2="-113"
       y1="239.5"
       x1="-113"
       stroke-miterlimit="10" /></g><g
     id="flv"
     transform="translate(113.50008,-239.5)"><rect
       style="fill:#e0dcd8"
       height="10"
       width="13"
       inkscape:export-ydpi="90.760002"
       inkscape:export-xdpi="90.760002"
       inkscape:export-filename="/home/sam/SCmodels/Office/model/utils/path5633.png"
       y="254.48199"
       x="-113.5"
       id="rect6442" /><rect
       style="fill:#74515f"
       height="8"
       width="9"
       y="255.48199"
       x="-110.5"
       id="rect6537" /><rect
       style="fill:#f0eeeb"
       height="8"
       width="7"
       y="255.48199"
       x="-109.5"
       id="rect6539" /><rect
       style="fill:#74515f"
       height="1"
       width="1"
       y="258.48199"
       x="-108.5"
       id="rect6527" /><rect
       style="fill:#74515f"
       height="1"
       width="1"
       y="258.48199"
       x="-104.5"
       id="rect6531" /><rect
       style="fill:#74515f"
       height="1"
       width="1"
       y="260.48199"
       x="-104.5"
       id="rect6533" /><rect
       style="fill:#74515f"
       height="1"
       width="1"
       y="260.48199"
       x="-108.5"
       id="rect6535" /><rect
       style="fill:#74515f"
       height="1"
       width="1"
       y="262.48199"
       x="-104.5"
       id="rect6579" /><rect
       style="fill:#74515f"
       height="1"
       width="1"
       y="262.48199"
       x="-108.5"
       id="rect6581" /><line
       style="fill:#74515f;stroke:#74515f;stroke-miterlimit:10"
       id="line139"
       y2="264.5"
       x2="-113"
       y1="254.5"
       x1="-113"
       stroke-miterlimit="10" /></g><style
     id="style4"
     type="text/css">
	.st0{fill:#F0EEEB;stroke:#000000;stroke-miterlimit:10;}
	.st1{fill:none;}
	.st2{fill:#74515F;}
	.st3{font-family:'MyriadPro-Regular';}
	.st4{font-size:14px;}
	.st5{fill:#FFFFFF;stroke:#E0DCD8;stroke-width:10;stroke-miterlimit:10;stroke-opacity:0.8;}
	.st6{fill:#F0EEEB;}
	.st7{fill:#FFFFFF;stroke:#E0DCD8;stroke-width:2;stroke-miterlimit:10;}
	.st8{font-family:'MyriadPro-BoldCond';}
	.st9{font-size:24.2553px;}
	.st10{font-size:12px;}
	.st11{letter-spacing:33;}
	.st12{fill:none;stroke:#74515F;stroke-miterlimit:10;}
	.st13{fill:none;stroke:#74515F;stroke-width:2;stroke-miterlimit:10;}
	.st14{fill:none;stroke:#967381;stroke-miterlimit:10;}
	.st15{fill:#967381;}
	.st16{font-family:'MyriadPro-Semibold';}
	.st17{fill:#E0DCD8;}
	.st18{font-family:'MyriadPro-Cond';}
	.st19{font-size:18px;}
	.st20{font-size:16px;}
	.st21{font-family:'RopaSans-Regular';}
	.st22{font-family:'MyriadPro-Bold';}
	.st23{fill:#FFFFFF;stroke:#E0DCD8;stroke-width:6;stroke-miterlimit:10;}
	.st24{font-size:21px;}
	.st25{fill:#74515F;stroke:#74515F;stroke-width:6;stroke-miterlimit:10;}
	.st26{fill:#FFFFFF;stroke:#74515F;stroke-width:3;stroke-miterlimit:10;}
	.st27{fill:#967381;stroke:#74515F;stroke-width:3;stroke-miterlimit:10;}
	.st28{fill:#999999;}
	.st29{font-size:36px;}
</style></svg>